<svg xmlns="http://www.w3.org/2000/svg" xmlns:xlink="http://www.w3.org/1999/xlink" width="247" zoomAndPan="magnify" viewBox="0 0 185.25 181.499992" height="242" preserveAspectRatio="xMidYMid meet" version="1.0"><defs><clipPath id="895550cdfe"><path d="M 49 111 L 87 111 L 87 155 L 49 155 Z M 49 111 " clip-rule="nonzero"/></clipPath><clipPath id="f1159c56ce"><path d="M 70.273438 180.695312 L 0.164062 77.515625 L 113.847656 0.269531 L 183.957031 103.449219 Z M 70.273438 180.695312 " clip-rule="nonzero"/></clipPath><clipPath id="7e64241e18"><path d="M 70.273438 180.695312 L 0.164062 77.515625 L 113.847656 0.269531 L 183.957031 103.449219 Z M 70.273438 180.695312 " clip-rule="nonzero"/></clipPath><clipPath id="64b8b70e58"><path d="M 93 14 L 134 14 L 134 50 L 93 50 Z M 93 14 " clip-rule="nonzero"/></clipPath><clipPath id="35e1ac3c5f"><path d="M 70.273438 180.695312 L 0.164062 77.515625 L 113.847656 0.269531 L 183.957031 103.449219 Z M 70.273438 180.695312 " clip-rule="nonzero"/></clipPath><clipPath id="80e6a1c971"><path d="M 70.273438 180.695312 L 0.164062 77.515625 L 113.847656 0.269531 L 183.957031 103.449219 Z M 70.273438 180.695312 " clip-rule="nonzero"/></clipPath><clipPath id="47eee0ac98"><path d="M 129 94 L 170 94 L 170 130 L 129 130 Z M 129 94 " clip-rule="nonzero"/></clipPath><clipPath id="55cd7fb7d2"><path d="M 70.273438 180.695312 L 0.164062 77.515625 L 113.847656 0.269531 L 183.957031 103.449219 Z M 70.273438 180.695312 " clip-rule="nonzero"/></clipPath><clipPath id="9402b3ceae"><path d="M 70.273438 180.695312 L 0.164062 77.515625 L 113.847656 0.269531 L 183.957031 103.449219 Z M 70.273438 180.695312 " clip-rule="nonzero"/></clipPath><clipPath id="664b3744a1"><path d="M 46 54 L 87 54 L 87 90 L 46 90 Z M 46 54 " clip-rule="nonzero"/></clipPath><clipPath id="1f36f24c97"><path d="M 70.273438 180.695312 L 0.164062 77.515625 L 113.847656 0.269531 L 183.957031 103.449219 Z M 70.273438 180.695312 " clip-rule="nonzero"/></clipPath><clipPath id="fdbde94849"><path d="M 70.273438 180.695312 L 0.164062 77.515625 L 113.847656 0.269531 L 183.957031 103.449219 Z M 70.273438 180.695312 " clip-rule="nonzero"/></clipPath><clipPath id="c2745ccb4a"><path d="M 82.28125 70.78125 L 82.636719 70.78125 L 82.636719 71.058594 L 82.28125 71.058594 Z M 82.28125 70.78125 " clip-rule="nonzero"/></clipPath><clipPath id="5b443ad486"><path d="M 82.617188 70.949219 C 81.945312 71.246094 82.542969 70.796875 82.542969 70.796875 " clip-rule="nonzero"/></clipPath></defs><g clip-path="url(#895550cdfe)"><g clip-path="url(#f1159c56ce)"><g clip-path="url(#7e64241e18)"><path fill="#68acdd" d="M 51.839844 152.378906 C 52.382812 154.207031 55.023438 155.25 56.585938 153.964844 C 66.011719 146.230469 75.433594 138.503906 84.859375 130.773438 C 86.789062 129.1875 86.164062 126.570312 84.660156 125.433594 C 84.472656 124.660156 83.976562 123.9375 83.085938 123.449219 C 74.6875 118.863281 65.945312 114.992188 56.910156 111.847656 C 55.453125 111.34375 53.3125 111.589844 52.714844 113.335938 C 48.371094 126.023438 48.003906 139.507812 51.839844 152.378906 Z M 78.316406 128.039062 C 71.097656 133.960938 63.871094 139.882812 56.652344 145.808594 C 54.765625 136.867188 55.046875 127.539062 57.558594 118.738281 C 64.675781 121.378906 71.597656 124.484375 78.3125 128.03125 Z M 78.316406 128.039062 " fill-opacity="1" fill-rule="nonzero"/></g></g></g><g clip-path="url(#64b8b70e58)"><g clip-path="url(#35e1ac3c5f)"><g clip-path="url(#80e6a1c971)"><path fill="#68acdd" d="M 94.765625 26.691406 C 96.625 33.21875 98.484375 39.742188 100.347656 46.273438 C 100.421875 46.539062 100.519531 46.769531 100.636719 46.980469 C 100.90625 48.910156 103.277344 50.792969 105.648438 49.597656 C 114.6875 45.035156 123.433594 39.960938 131.878906 34.363281 C 133.824219 33.074219 133.648438 29.878906 131.46875 28.921875 C 125.558594 26.328125 119.648438 23.734375 113.734375 21.136719 C 110.777344 19.835938 107.824219 18.542969 104.867188 17.242188 C 102.535156 16.21875 99.855469 14.574219 97.199219 14.867188 C 90.777344 15.585938 93.699219 22.898438 94.777344 26.6875 Z M 123.476562 32.289062 C 117.71875 35.921875 111.828125 39.324219 105.800781 42.488281 C 104.589844 38.222656 103.375 33.964844 102.160156 29.695312 C 101.472656 27.273438 100.78125 24.851562 100.09375 22.425781 L 100.003906 22.117188 C 100.714844 22.382812 101.449219 22.617188 101.628906 22.695312 C 108.914062 25.890625 116.195312 29.089844 123.484375 32.285156 Z M 123.476562 32.289062 " fill-opacity="1" fill-rule="nonzero"/></g></g></g><g clip-path="url(#47eee0ac98)"><g clip-path="url(#55cd7fb7d2)"><g clip-path="url(#9402b3ceae)"><path fill="#68acdd" d="M 130.75 106.644531 C 132.609375 113.167969 134.46875 119.691406 136.332031 126.222656 C 136.40625 126.488281 136.503906 126.71875 136.621094 126.929688 C 136.890625 128.863281 139.261719 130.742188 141.632812 129.546875 C 150.667969 124.988281 159.414062 119.90625 167.859375 114.316406 C 169.804688 113.03125 169.628906 109.832031 167.445312 108.875 C 161.535156 106.28125 155.625 103.6875 149.714844 101.089844 C 146.757812 99.789062 143.800781 98.496094 140.847656 97.195312 C 138.511719 96.171875 135.835938 94.527344 133.179688 94.820312 C 126.753906 95.539062 129.679688 102.851562 130.757812 106.640625 Z M 159.464844 112.246094 C 153.707031 115.875 147.816406 119.277344 141.789062 122.441406 C 140.578125 118.179688 139.363281 113.917969 138.148438 109.652344 C 137.460938 107.226562 136.769531 104.804688 136.082031 102.382812 L 135.992188 102.074219 C 136.703125 102.339844 137.4375 102.574219 137.617188 102.648438 C 144.902344 105.84375 152.183594 109.046875 159.472656 112.242188 Z M 159.464844 112.246094 " fill-opacity="1" fill-rule="nonzero"/></g></g></g><g clip-path="url(#664b3744a1)"><g clip-path="url(#1f36f24c97)"><g clip-path="url(#fdbde94849)"><path fill="#68acdd" d="M 57.789062 56.988281 C 55.457031 55.964844 52.78125 54.320312 50.125 54.613281 C 43.699219 55.332031 46.621094 62.644531 47.703125 66.433594 C 49.558594 72.957031 51.417969 79.484375 53.28125 86.011719 C 53.355469 86.277344 53.457031 86.507812 53.570312 86.71875 C 53.839844 88.652344 56.210938 90.53125 58.582031 89.339844 C 67.621094 84.777344 76.367188 79.699219 84.8125 74.101562 C 86.757812 72.816406 86.582031 69.621094 84.402344 68.660156 C 78.492188 66.066406 72.582031 63.472656 66.667969 60.875 C 63.710938 59.574219 60.757812 58.28125 57.800781 56.980469 Z M 53.023438 62.167969 L 52.933594 61.863281 C 53.644531 62.128906 54.378906 62.359375 54.558594 62.4375 C 61.84375 65.632812 69.125 68.832031 76.414062 72.03125 C 70.65625 75.660156 64.761719 79.0625 58.738281 82.226562 C 57.527344 77.964844 56.308594 73.703125 55.097656 69.4375 C 54.40625 67.011719 53.714844 64.589844 53.027344 62.164062 Z M 53.023438 62.167969 " fill-opacity="1" fill-rule="nonzero"/></g></g></g><g clip-path="url(#c2745ccb4a)"><g clip-path="url(#5b443ad486)"><path fill="#68acdd" d="M 78.957031 67.808594 L 85.683594 67.808594 L 85.683594 74.308594 L 78.957031 74.308594 Z M 78.957031 67.808594 " fill-opacity="1" fill-rule="nonzero"/></g></g></svg>