<svg xmlns="http://www.w3.org/2000/svg" xmlns:xlink="http://www.w3.org/1999/xlink" width="486" zoomAndPan="magnify" viewBox="0 0 364.5 98.999996" height="132" preserveAspectRatio="xMidYMid meet" version="1.0"><defs><clipPath id="75980d0f6a"><path d="M 10 1.734375 L 347 1.734375 L 347 98.183594 L 10 98.183594 Z M 10 1.734375 " clip-rule="nonzero"/></clipPath><clipPath id="e10cc814ba"><path d="M 180.640625 22.226562 L 189.496094 22.226562 L 189.496094 30.96875 L 180.640625 30.96875 Z M 180.640625 22.226562 " clip-rule="nonzero"/></clipPath><clipPath id="064748dac2"><path d="M 189.449219 25.339844 C 188.324219 30.136719 187.800781 30.507812 187.050781 30.734375 C 186.003906 31.109375 183.832031 30.960938 182.859375 30.507812 C 182.183594 30.210938 181.734375 29.609375 181.359375 29.011719 C 180.984375 28.414062 180.6875 27.738281 180.6875 26.914062 C 180.761719 25.867188 181.660156 23.917969 182.410156 23.09375 C 182.933594 22.570312 183.605469 22.269531 184.355469 22.269531 C 185.480469 22.195312 188.402344 23.46875 188.402344 23.46875 " clip-rule="nonzero"/></clipPath></defs><path fill="#edc448" d="M 250.839844 45.828125 C 249.035156 43.347656 237.984375 44.9375 234.457031 44.9375 C 211.832031 44.9375 189.203125 44.9375 166.578125 44.9375 C 163.433594 44.9375 155.265625 43.683594 153.707031 45.828125 C 152.292969 47.773438 153.402344 56.160156 153.65625 59.78125 C 152.511719 60 150.578125 63.28125 150.578125 63.28125 L 153.09375 68.277344 C 152.867188 71.496094 152.835938 74.699219 153.707031 75.890625 C 155.207031 77.949219 162.335938 76.785156 165.480469 76.785156 C 176.6875 76.785156 187.898438 76.785156 199.105469 76.785156 C 216.351562 76.785156 233.59375 76.785156 250.839844 76.785156 C 250.839844 74.003906 250.839844 71.226562 250.839844 68.449219 L 252.695312 64.773438 L 251.011719 59.78125 C 251.40625 55.308594 252.238281 47.75 250.839844 45.828125 Z M 360.183594 45.828125 C 359.601562 45.03125 358.066406 44.65625 356.136719 44.511719 L 310.8125 28.78125 L 265.65625 44.730469 C 264.441406 44.902344 263.484375 45.230469 263.046875 45.828125 C 261.632812 47.773438 262.746094 56.160156 263 59.78125 L 261.171875 63.339844 L 262.4375 68.277344 C 262.207031 71.496094 262.179688 74.699219 263.046875 75.890625 C 264.546875 77.949219 271.679688 76.785156 274.824219 76.785156 C 286.03125 76.785156 297.242188 76.785156 308.453125 76.785156 C 325.691406 76.785156 342.9375 76.785156 360.183594 76.785156 C 360.183594 72.003906 360.183594 67.226562 360.183594 62.449219 C 360.183594 59.5 361.9375 48.242188 360.183594 45.828125 Z M 20.503906 18.054688 C 20.503906 18.054688 24.054688 22.695312 31.394531 22.695312 C 31.394531 22.695312 46.050781 22.214844 46.910156 18.085938 C 48.339844 17.1875 48.039062 14.902344 47.773438 13.960938 C 47.316406 12.324219 44.71875 12.59375 42.574219 12.59375 C 36.722656 12.59375 30.871094 12.59375 25.019531 12.59375 C 23.726562 12.59375 21.496094 12.378906 20.371094 12.855469 C 18.796875 13.527344 19.148438 16.101562 19.410156 17.078125 C 19.523438 17.507812 19.917969 17.824219 20.503906 18.054688 Z M 140.929688 50.246094 C 140.929688 58.128906 141.429688 66.191406 140.929688 74.0625 C 140.664062 78.253906 139.144531 79.777344 135.105469 80.046875 C 123.800781 80.796875 112.195312 80.046875 100.875 80.046875 C 70.960938 80.046875 40.871094 81.042969 10.976562 80.046875 C 7.328125 79.925781 4.765625 80.460938 3.644531 75.886719 C 2.234375 70.132812 3.644531 62.269531 3.644531 56.363281 C 3.644531 51.609375 1.941406 43.164062 3.90625 38.660156 C 5.808594 34.304688 13.046875 35.8125 17 35.8125 C 19.554688 35.8125 22.105469 35.8125 24.660156 35.8125 L 33.707031 31.289062 L 43.375 35.8125 C 50.132812 35.8125 56.898438 35.8125 63.660156 35.8125 C 68.597656 35.8125 71.851562 35.867188 72.289062 29.949219 C 72.761719 23.511719 72.289062 16.878906 72.289062 10.421875 C 72.289062 3.484375 101.269531 6.574219 105.949219 6.605469 C 112.453125 6.640625 131.480469 3.480469 133.304688 11.136719 C 134.972656 18.144531 131.546875 26.402344 133.304688 33.382812 C 134.523438 38.246094 139.636719 36.496094 140.929688 41.382812 C 141.613281 43.960938 140.929688 47.59375 140.929688 50.246094 " fill-opacity="1" fill-rule="nonzero"/><path fill="#68acdd" d="M 142.191406 49.292969 C 141.207031 46.449219 142.292969 47.378906 138.621094 47.199219 C 126.714844 46.632812 114.636719 47.199219 102.71875 47.199219 C 74.199219 47.199219 45.675781 47.199219 17.15625 47.199219 C 13.523438 47.199219 9.230469 46.554688 5.652344 47.199219 C 2.320312 47.800781 3.90625 46.300781 2.871094 49.292969 C 1.9375 51.988281 2.871094 56.890625 2.871094 59.753906 C 2.871094 61.460938 1.933594 66.832031 2.871094 68.292969 C 3.730469 69.636719 4.210938 69.027344 6.4375 69.183594 C 31.386719 70.921875 57.074219 69.183594 82.074219 69.183594 C 102.113281 69.183594 122.152344 69.183594 142.191406 69.183594 C 142.191406 68.925781 142.199219 68.652344 142.207031 68.382812 L 144.492188 64.082031 L 142.824219 59.78125 C 143.101562 55.945312 143.164062 52.105469 142.191406 49.292969 Z M 356.136719 6.777344 C 355.445312 3.148438 353.828125 2.539062 350.570312 2.339844 C 327.9375 0.972656 304.8125 2.339844 282.136719 2.339844 C 276.863281 2.339844 267.253906 0.0742188 265.96875 6.5625 C 263.96875 16.660156 265.96875 29.136719 265.96875 39.425781 C 265.96875 40.980469 265.804688 42.824219 265.65625 44.730469 C 268.785156 44.292969 273.65625 44.9375 275.921875 44.9375 C 298.546875 44.9375 321.171875 44.9375 343.800781 44.9375 C 346.195312 44.9375 352.054688 44.207031 356.136719 44.511719 C 356.136719 37.15625 356.136719 29.800781 356.136719 22.445312 C 356.136719 17.511719 357.058594 11.632812 356.136719 6.777344 Z M 20.503906 18.054688 C 23.105469 19.097656 29.507812 18.464844 31.820312 18.464844 C 36.355469 18.464844 40.890625 18.464844 45.429688 18.464844 C 46.0625 18.464844 46.542969 18.320312 46.910156 18.085938 C 46.320312 20.207031 43.34375 22.164062 42.714844 23.605469 C 41.351562 26.746094 44.101562 32.28125 43.375 35.8125 C 37.132812 35.8125 30.898438 35.8125 24.660156 35.8125 C 23.355469 32.476562 24.730469 26.890625 24.730469 23.339844 C 23.488281 22.425781 21.09375 20.164062 20.503906 18.054688 " fill-opacity="1" fill-rule="nonzero"/><g clip-path="url(#75980d0f6a)"><path fill="#fd6868" d="M 277.84375 85.90625 C 277.84375 101.660156 302.394531 101.753906 302.394531 85.90625 C 302.394531 70.058594 277.84375 70.132812 277.84375 85.90625 Z M 322.332031 85.90625 C 322.332031 101.660156 346.878906 101.753906 346.878906 85.90625 C 346.878906 70.058594 322.332031 70.132812 322.332031 85.90625 Z M 168.503906 85.90625 C 168.503906 101.660156 193.046875 101.753906 193.046875 85.90625 C 193.046875 70.058594 168.503906 70.132812 168.503906 85.90625 Z M 212.988281 85.90625 C 212.988281 101.660156 237.535156 101.753906 237.535156 85.90625 C 237.535156 70.058594 212.988281 70.132812 212.988281 85.90625 Z M 241.226562 2.339844 C 218.59375 0.972656 195.472656 2.339844 172.792969 2.339844 C 167.523438 2.339844 157.90625 0.0742188 156.625 6.5625 C 154.625 16.660156 156.625 29.136719 156.625 39.425781 C 156.625 40.980469 156.460938 42.824219 156.3125 44.730469 C 159.445312 44.292969 164.3125 44.9375 166.578125 44.9375 C 189.203125 44.9375 211.832031 44.9375 234.457031 44.9375 C 236.855469 44.9375 242.710938 44.207031 246.792969 44.511719 C 246.792969 37.15625 246.792969 29.800781 246.792969 22.445312 C 246.792969 17.511719 247.714844 11.632812 246.792969 6.777344 C 246.101562 3.148438 244.488281 2.539062 241.226562 2.339844 Z M 251.011719 59.78125 C 250.910156 60.914062 250.839844 61.855469 250.839844 62.449219 C 250.839844 64.449219 250.839844 66.449219 250.839844 68.449219 C 251.8125 68.355469 252.644531 68.277344 253.148438 68.277344 C 256.246094 68.277344 259.339844 68.277344 262.4375 68.277344 C 262.652344 65.265625 263.046875 62.238281 263.046875 60.859375 C 263.046875 60.582031 263.03125 60.214844 263 59.78125 C 259.003906 59.78125 255.003906 59.78125 251.011719 59.78125 Z M 142.824219 59.78125 C 142.609375 62.824219 142.273438 65.859375 142.207031 68.382812 C 142.871094 68.320312 143.429688 68.277344 143.808594 68.277344 C 146.902344 68.277344 150 68.277344 153.09375 68.277344 C 153.3125 65.265625 153.707031 62.238281 153.707031 60.859375 C 153.707031 60.582031 153.6875 60.214844 153.65625 59.78125 C 150.046875 59.78125 146.4375 59.78125 142.824219 59.78125 Z M 10.019531 86.363281 C 10.019531 102.574219 35.132812 102.507812 35.132812 86.363281 C 35.132812 70.222656 10.019531 70.15625 10.019531 86.363281 Z M 43.113281 86.363281 C 43.113281 102.574219 68.230469 102.507812 68.230469 86.363281 C 68.230469 70.222656 43.113281 70.15625 43.113281 86.363281 Z M 121.101562 79.09375 C 121.101562 104.820312 81.441406 104.511719 81.441406 79.09375 C 81.441406 53.699219 121.101562 53.332031 121.101562 79.09375 " fill-opacity="1" fill-rule="nonzero"/></g><path fill="#ffffff" d="M 233.066406 13.488281 C 230.699219 11.746094 220.769531 13.488281 217.757812 13.488281 C 216.097656 13.488281 207.238281 12.277344 206.117188 13.488281 C 204.457031 15.28125 205.628906 35.496094 206.8125 36.242188 C 209.445312 37.894531 218.535156 36.242188 221.617188 36.242188 C 225.753906 36.242188 229.890625 36.242188 234.027344 36.242188 C 234.027344 31.332031 236.230469 15.808594 233.066406 13.488281 Z M 306.882812 13.722656 C 304.511719 11.984375 294.578125 13.722656 291.5625 13.722656 C 289.90625 13.722656 281.046875 12.515625 279.929688 13.722656 C 278.269531 15.519531 279.441406 35.730469 280.625 36.476562 C 283.257812 38.128906 292.34375 36.476562 295.425781 36.476562 C 299.5625 36.476562 303.699219 36.476562 307.835938 36.476562 C 307.835938 31.566406 310.039062 16.046875 306.882812 13.722656 Z M 342.414062 13.488281 C 340.042969 11.746094 330.109375 13.488281 327.097656 13.488281 C 325.441406 13.488281 316.578125 12.277344 315.460938 13.488281 C 313.800781 15.28125 314.972656 35.496094 316.15625 36.242188 C 318.789062 37.894531 327.875 36.242188 330.960938 36.242188 C 335.097656 36.242188 339.230469 36.242188 343.367188 36.242188 C 343.367188 31.332031 345.574219 15.808594 342.414062 13.488281 Z M 197.535156 13.722656 C 195.164062 11.984375 185.234375 13.722656 182.222656 13.722656 C 180.566406 13.722656 171.703125 12.515625 170.585938 13.722656 C 168.925781 15.519531 170.097656 35.730469 171.28125 36.476562 C 173.914062 38.128906 183 36.476562 186.085938 36.476562 C 190.222656 36.476562 194.359375 36.476562 198.492188 36.476562 C 198.492188 31.566406 200.695312 16.046875 197.535156 13.722656 Z M 105.957031 36.980469 C 105.957031 32.546875 105.957031 28.117188 105.957031 23.6875 C 105.957031 22.148438 106.925781 14.515625 105.832031 13.445312 C 104.605469 12.25 80.84375 12.238281 79.726562 13.445312 C 78.4375 14.835938 78.667969 35.71875 79.847656 36.980469 C 81.144531 38.371094 91.652344 36.980469 93.625 36.980469 C 97.738281 36.980469 101.84375 36.980469 105.957031 36.980469 Z M 120.773438 13.691406 C 119.191406 13.664062 111.8125 12.648438 110.855469 13.691406 C 109.941406 14.699219 110.855469 20.304688 110.855469 21.683594 C 110.855469 25.550781 109.980469 30.613281 110.855469 34.375 C 111.695312 37.953125 109.929688 36.691406 113.957031 37.226562 C 117.375 37.679688 121.125 37.226562 124.585938 37.226562 C 124.585938 30.863281 126.277344 22.128906 124.585938 16.0625 C 123.738281 13.015625 125.011719 13.769531 120.773438 13.691406 Z M 47.773438 86.363281 C 47.773438 96.507812 63.570312 96.535156 63.570312 86.363281 C 63.570312 76.132812 47.773438 76.230469 47.773438 86.363281 Z M 91.167969 79.09375 C 91.167969 92.125 111.375 92.125 111.375 79.09375 C 111.375 66.058594 91.167969 66.058594 91.167969 79.09375 Z M 14.675781 86.363281 C 14.675781 96.507812 30.476562 96.535156 30.476562 86.363281 C 30.476562 76.132812 14.675781 76.230469 14.675781 86.363281 Z M 282.394531 85.90625 C 282.394531 95.820312 297.839844 95.847656 297.839844 85.90625 C 297.839844 75.902344 282.394531 76 282.394531 85.90625 Z M 326.882812 85.90625 C 326.882812 95.820312 342.324219 95.847656 342.324219 85.90625 C 342.324219 75.902344 326.882812 76 326.882812 85.90625 Z M 173.054688 85.90625 C 173.054688 95.820312 188.496094 95.847656 188.496094 85.90625 C 188.496094 75.902344 173.054688 76 173.054688 85.90625 Z M 232.984375 85.90625 C 232.984375 95.847656 217.542969 95.820312 217.542969 85.90625 C 217.542969 76 232.984375 75.902344 232.984375 85.90625 " fill-opacity="1" fill-rule="nonzero"/><path fill="#fd6868" d="M 141.234375 45.359375 L 2.453125 45.359375 C 1.4375 45.359375 0.613281 46.183594 0.613281 47.199219 C 0.613281 48.21875 1.4375 49.042969 2.453125 49.042969 L 141.234375 49.042969 C 142.25 49.042969 143.074219 48.21875 143.074219 47.199219 C 143.074219 46.183594 142.25 45.359375 141.234375 45.359375 Z M 360.964844 50.363281 L 262.300781 50.363281 C 261.285156 50.363281 260.457031 51.1875 260.457031 52.207031 C 260.457031 53.222656 261.285156 54.042969 262.300781 54.042969 L 360.964844 54.042969 C 361.980469 54.042969 362.800781 53.222656 362.800781 52.207031 C 362.800781 51.1875 361.980469 50.363281 360.964844 50.363281 Z M 253.140625 52.207031 C 253.140625 53.222656 252.316406 54.042969 251.300781 54.042969 L 153.058594 54.042969 C 152.042969 54.042969 151.214844 53.222656 151.214844 52.207031 C 151.214844 51.1875 152.042969 50.363281 153.058594 50.363281 L 251.300781 50.363281 C 252.316406 50.363281 253.140625 51.1875 253.140625 52.207031 " fill-opacity="1" fill-rule="nonzero"/><g clip-path="url(#e10cc814ba)"><g clip-path="url(#064748dac2)"><path fill="#ffffff" d="M 177.691406 19.273438 L 192.503906 19.273438 L 192.503906 33.804688 L 177.691406 33.804688 Z M 177.691406 19.273438 " fill-opacity="1" fill-rule="nonzero"/></g></g></svg>